<?xml version="1.0" encoding="utf-8"?>
<!-- Generator: Adobe Illustrator 16.0.0, SVG Export Plug-In . SVG Version: 6.00 Build 0)  -->
<!DOCTYPE svg PUBLIC "-//W3C//DTD SVG 1.1//EN" "http://www.w3.org/Graphics/SVG/1.1/DTD/svg11.dtd">
<svg version="1.1" xmlns="http://www.w3.org/2000/svg" xmlns:xlink="http://www.w3.org/1999/xlink" x="0px" y="0px" width="500px"
	 height="369.293px" viewBox="0 49.5 500 369.293" enable-background="new 0 49.5 500 369.293" xml:space="preserve">
<g id="Layer_2">
	<path fill="#FFFFFF" d="M0,49.5h500v369.293H0V49.5z"/>
</g>
<g id="Layer_1">
	<g>
		<path fill="#FFFFFF" stroke="#000000" stroke-width="2" stroke-miterlimit="10" d="M407.978,336.613
			c1.403-2.52,2.141-5.356,2.141-8.24V144.235c-0.024-9.416-7.644-17.047-17.06-17.086H106.129
			c-9.414,0.039-17.032,7.671-17.051,17.086v184.138c-0.002,2.884,0.732,5.721,2.133,8.24H407.978z"/>
		<path fill="#FFFFFF" stroke="#000000" stroke-width="2" stroke-miterlimit="10" d="M71.138,336.613
			c1.292,8.946,8.943,15.596,17.982,15.63h321.287c9.022-0.054,16.649-6.699,17.94-15.63H71.138z"/>
		<path fill="#BDF1D3" stroke="#000000" stroke-miterlimit="10" d="M97.442,140.55h303.911v183.099H97.442V140.55z"/>
		<path fill="none" stroke="#000000" stroke-miterlimit="10" d="M221.465,336.613v3.271c0.008,2.989,2.427,5.412,5.417,5.423h46.053
			c2.992-0.007,5.414-2.433,5.417-5.423v-3.271H221.465z"/>
		<g>
			<path opacity="0.3" fill="#FFFFFF" enable-background="new    " d="M121.622,288.751h15.872v34.028h-15.872V288.751z"/>
			<path opacity="0.35" fill="#FFFFFF" enable-background="new    " d="M138.873,279.884h15.871v42.896h-15.871V279.884z"/>
			<path opacity="0.4" fill="#FFFFFF" enable-background="new    " d="M156.124,287.89h15.872v34.89h-15.872V287.89z"/>
			<path opacity="0.45" fill="#FFFFFF" enable-background="new    " d="M173.375,275.019h15.872v47.761h-15.872V275.019z"/>
			<path opacity="0.5" fill="#FFFFFF" enable-background="new    " d="M190.626,265.015h15.872v57.765h-15.872V265.015z"/>
			<path opacity="0.55" fill="#FFFFFF" enable-background="new    " d="M207.878,254.146h15.871v68.633h-15.871V254.146z"/>
			<path opacity="0.6" fill="#FFFFFF" enable-background="new    " d="M225.129,250.144H241v72.636h-15.87V250.144z"/>
			<path opacity="0.65" fill="#FFFFFF" enable-background="new    " d="M242.38,257.01h15.871v65.77H242.38V257.01z"/>
			<path opacity="0.7" fill="#FFFFFF" enable-background="new    " d="M259.632,255.292h15.87v67.487h-15.87V255.292z"/>
			<path opacity="0.75" fill="#FFFFFF" enable-background="new    " d="M276.882,250.144h15.872v72.636h-15.872V250.144z"/>
			<path opacity="0.8" fill="#FFFFFF" enable-background="new    " d="M294.133,243.284h15.871v79.495h-15.871V243.284z"/>
			<path opacity="0.85" fill="#FFFFFF" enable-background="new    " d="M311.385,234.7h15.871v88.079h-15.871V234.7z"/>
			<path opacity="0.9" fill="#FFFFFF" enable-background="new    " d="M328.636,228.987h15.871v93.792h-15.871V228.987z"/>
			<path opacity="0.95" fill="#FFFFFF" enable-background="new    " d="M345.887,231.27h15.871v91.509h-15.871V231.27z"/>
			<path fill="#FFFFFF" d="M363.139,217.546h15.871v105.233h-15.871V217.546z"/>
		</g>
		<path fill="#17C75A" d="M194.249,194.139c0-0.132,0-0.269,0-0.4v-0.27c-0.003-0.036-0.003-0.074,0-0.109l-0.041-0.346
			c0-0.117-0.035-0.241-0.055-0.359c-0.828-4.532-5.173-7.536-9.706-6.707c-4.532,0.828-7.536,5.173-6.708,9.707
			c0.829,4.532,5.174,7.535,9.707,6.706c1.982-0.362,3.767-1.43,5.024-3.006l-2.477-1.745c-1.909,2.224-5.259,2.48-7.483,0.572
			c-2.225-1.909-2.481-5.258-0.572-7.483c1.907-2.224,5.257-2.48,7.482-0.573c0.778,0.668,1.346,1.546,1.635,2.528h-5.092
			l-1.332,3.009h9.522c0.072-0.392,0.115-0.789,0.132-1.187C194.249,194.374,194.249,194.27,194.249,194.139L194.249,194.139z"/>
		<path d="M209.933,197.582v2.76h-1.483v-2.76h-4.713v-1.09l3.375-7.873l1.291,0.538l-3.043,7.205h3.091l0.152-3.009h1.331v3.009
			h1.457v1.221H209.933z"/>
		<path d="M218.415,190.51l-2.76,1.67l-0.731-1.07l3.678-2.291h1.379v10.282h2.36v1.241h-6.721v-1.241h2.823L218.415,190.51z"/>
		<path d="M225.522,194.573c0-3.815,1.304-5.954,3.809-5.954c2.505,0,3.816,2.139,3.816,5.954c0,3.817-1.304,5.971-3.816,5.971
			S225.522,198.403,225.522,194.573z M231.561,194.573c0-3.359-0.821-4.732-2.229-4.732c-1.407,0-2.222,1.379-2.222,4.732
			c0,3.354,0.835,4.749,2.222,4.749C230.718,199.322,231.561,197.949,231.561,194.573z M229.331,193.483
			c0.606-0.007,1.104,0.478,1.111,1.083c0.008,0.606-0.478,1.103-1.083,1.111c-0.606,0.008-1.103-0.478-1.11-1.084
			c0-0.006,0-0.013,0-0.021c-0.008-0.593,0.468-1.082,1.062-1.089C229.317,193.483,229.324,193.483,229.331,193.483z"/>
		<path d="M240.185,197.534c0.839-0.008,1.525,0.666,1.532,1.504c0.007,0.839-0.666,1.524-1.504,1.532
			c-0.839,0.007-1.524-0.666-1.532-1.505c0-0.009,0-0.018,0-0.027c-0.003-0.827,0.664-1.5,1.491-1.504
			C240.177,197.534,240.181,197.534,240.185,197.534z"/>
		<path d="M253.378,190.344c-0.434-0.337-0.973-0.515-1.523-0.504c-1.587,0-2.953,1.552-3.043,4.464
			c0.656-0.895,1.686-1.438,2.794-1.47c1.657,0,3.242,1.187,3.242,3.748c0,2.56-1.654,3.961-3.628,3.961
			c-2.809,0-3.947-2.479-3.947-5.37c0-3.899,1.794-6.555,4.604-6.555c0.779-0.016,1.542,0.226,2.174,0.688L253.378,190.344z
			 M248.832,195.609c0.048,2.305,0.801,3.713,2.388,3.713c1.381,0,2.069-1.036,2.069-2.691c0-1.926-0.883-2.574-1.951-2.574
			C250.298,194.134,249.364,194.713,248.832,195.609z"/>
		<path d="M261.487,200.543c-1.366,0.036-2.679-0.536-3.581-1.56l1.008-0.835c0.636,0.737,1.564,1.155,2.539,1.139
			c1.553,0,2.491-0.869,2.491-2.27c0-1.608-0.987-2.146-2.339-2.146h-0.891l0.187-1.187h0.6c1.064,0.111,2.02-0.664,2.129-1.728
			c0.009-0.076,0.012-0.149,0.011-0.225c0-1.221-0.931-1.89-2.118-1.89c-0.923-0.003-1.803,0.38-2.43,1.056l-0.849-0.953
			c0.89-0.884,2.092-1.381,3.347-1.38c2.208,0,3.574,1.324,3.574,2.891c0.002,1.297-0.915,2.413-2.187,2.664v0.062
			c1.459,0.075,2.595,1.298,2.561,2.761C265.539,199.018,263.917,200.543,261.487,200.543L261.487,200.543z"/>
		<path d="M275.116,190.344c-0.436-0.336-0.97-0.514-1.519-0.504c-1.594,0-2.96,1.552-3.042,4.464
			c0.644-0.888,1.661-1.43,2.759-1.47c1.657,0,3.243,1.187,3.243,3.748c0,2.56-1.655,3.961-3.63,3.961
			c-2.807,0-3.939-2.479-3.939-5.37c0-3.899,1.787-6.555,4.597-6.555c0.779-0.016,1.544,0.226,2.171,0.688L275.116,190.344z
			 M270.568,195.609c0.049,2.305,0.8,3.713,2.387,3.713c1.382,0,2.071-1.036,2.071-2.691c0-1.926-0.884-2.574-1.953-2.574
			C272.035,194.134,271.101,194.713,270.568,195.609z"/>
		<path d="M286.019,197.582v2.76h-1.49v-2.76h-4.713v-1.09l3.375-7.873l1.289,0.538l-3.043,7.205h3.092l0.151-3.009h1.339v3.009
			h1.455v1.221H286.019z"/>
		<path d="M293.443,200.508l-1.435-0.435l4.458-9.999h-5.361v-1.256h6.899v1.125L293.443,200.508z"/>
		<path d="M306.899,194.119c1.539,0.69,2.478,1.725,2.478,3.126c0,1.876-1.518,3.299-3.996,3.299c-2.477,0-3.927-1.443-3.927-3.264
			c0-1.381,0.898-2.354,2.319-2.961c-1.13-0.474-1.862-1.583-1.855-2.808c0-2.071,1.96-2.891,3.497-2.891
			c1.704,0,3.491,0.855,3.491,2.856C308.906,192.518,308.202,193.449,306.899,194.119L306.899,194.119z M304.781,194.726
			c-1.057,0.393-1.749,1.412-1.726,2.54c0,1.27,0.787,2.07,2.325,2.07c1.54,0,2.39-0.89,2.39-2.07
			C307.771,195.761,306.568,195.339,304.781,194.726z M305.864,193.767c1.035-0.601,1.537-1.305,1.537-2.223
			c0-1.034-0.688-1.752-1.986-1.752c-1.296,0-1.993,0.634-1.993,1.739C303.422,192.635,304.347,193.27,305.864,193.767
			L305.864,193.767z"/>
		<path d="M314.49,199.052h5.229l-0.179,1.29h-6.858v-1.221c3.979-3.947,5.203-5.521,5.203-7.273
			c0.046-1.009-0.732-1.865-1.74-1.912c-0.092-0.004-0.186-0.002-0.276,0.007c-0.93-0.012-1.799,0.455-2.304,1.235l-1.07-0.752
			c0.805-1.103,2.086-1.761,3.451-1.773c2.111,0,3.45,1.339,3.45,3.181C319.444,193.801,317.857,195.809,314.49,199.052
			L314.49,199.052z"/>
	</g>
</g>
</svg>
